<?xml version="1.0" encoding="UTF-8" standalone="no"?>
<svg
  xmlns:dc="http://purl.org/dc/elements/1.1/"
  xmlns:cc="http://creativecommons.org/ns#"
  xmlns:rdf="http://www.w3.org/1999/02/22-rdf-syntax-ns#"
  xmlns:svg="http://www.w3.org/2000/svg"
  xmlns="http://www.w3.org/2000/svg"
  xmlns:sodipodi="http://sodipodi.sourceforge.net/DTD/sodipodi-0.dtd"
  xmlns:inkscape="http://www.inkscape.org/namespaces/inkscape"
  inkscape:version="1.0 (4035a4fb49, 2020-05-01)"
  sodipodi:docname="nils.svg"
  id="svg6"
  preserveAspectRatio="xMidYMid meet"
  viewBox="0 0 720 540"
  height="540pt"
  width="720pt"
  version="1.0">
 <metadata
   id="metadata12">
  <rdf:RDF>
   <cc:Work
     rdf:about="">
    <dc:format>image/svg+xml</dc:format>
    <dc:type
      rdf:resource="http://purl.org/dc/dcmitype/StillImage" />
    <dc:title></dc:title>
   </cc:Work>
  </rdf:RDF>
 </metadata>
 <defs
   id="defs10" />
 <sodipodi:namedview
   inkscape:current-layer="svg6"
   inkscape:window-maximized="1"
   inkscape:window-y="-9"
   inkscape:window-x="106"
   inkscape:cy="511"
   inkscape:cx="570"
   inkscape:zoom="0.719"
   showgrid="false"
   id="namedview8"
   inkscape:window-height="1023"
   inkscape:window-width="1680"
   inkscape:pageshadow="2"
   inkscape:pageopacity="0"
   guidetolerance="10"
   gridtolerance="10"
   objecttolerance="10"
   borderopacity="1"
   bordercolor="#666666"
   pagecolor="#ffffff" />
 <g
   id="g4"
   stroke="none"
   fill="#000000"
   transform="matrix(0.068,0,0,-0.068,-74.9,565)">
  <path
    id="path2"
    d="m 3990,6560 c -150,-10 -430,-80 -670,-160 -100,-30 -200,-70 -240,-70 -180,-50 -470,-170 -840,-370 l -290,-150 -260,-10 c -140,-10 -300,-20 -340,-20 -90,0 -150,-30 -100,-40 30,-10 20,-40 -20,-50 -40,-20 -50,-30 -20,-40 10,-20 10,-20 0,-40 -10,-10 -10,-20 0,-20 10,-10 10,-10 0,-30 -10,-20 -10,-20 0,-30 20,-10 30,-40 10,-50 0,-10 -10,-20 -10,-40 0,-10 0,-30 0,-40 0,-10 10,-10 80,-10 40,0 90,0 110,10 50,10 40,-20 -30,-70 -80,-60 -130,-140 -80,-120 10,0 60,10 120,30 90,20 120,20 300,30 110,0 230,0 260,10 80,20 90,10 40,-40 -20,-20 -40,-40 -40,-50 0,-10 10,-20 30,-40 20,-20 20,-20 10,-40 -20,-30 -10,-50 10,-70 10,-10 20,-30 20,-50 0,-10 10,-30 10,-40 20,-40 10,-100 -10,-140 -30,-50 -40,-80 -10,-100 10,-20 10,-20 0,-60 -30,-50 -20,-70 10,-80 30,-10 30,-10 30,-40 -10,-20 -10,-50 -10,-70 v -40 l 40,-10 h 50 v -30 c -30,-120 -20,-150 30,-150 20,0 30,0 30,-10 10,0 0,-30 -10,-70 -10,-50 -10,-60 0,-90 20,-40 50,-50 100,-40 60,20 60,20 60,-100 -10,-170 30,-210 120,-120 30,20 40,30 50,30 0,-10 0,-50 0,-110 10,-130 30,-180 90,-160 20,20 40,0 40,-30 0,-30 40,-100 60,-130 40,-30 70,-30 110,30 20,30 50,70 60,90 10,20 20,30 20,30 10,0 20,-20 40,-50 50,-60 80,-80 110,-60 30,10 90,110 120,180 10,40 30,70 30,70 0,0 30,-10 60,-20 30,-10 60,-20 80,-10 50,10 200,380 250,640 40,160 50,280 50,410 0,100 0,110 20,140 60,90 110,250 130,400 l 10,90 h 40 c 30,10 80,20 120,30 40,10 90,20 100,20 10,0 40,-20 70,-40 60,-50 100,-70 140,-70 20,0 30,-10 40,-30 20,-40 60,-80 90,-80 30,0 40,-10 60,-30 10,-30 60,-60 120,-70 30,0 50,-10 80,-40 10,-10 40,-30 60,-40 40,0 50,-20 50,-40 0,-30 20,-50 60,-50 20,-10 50,-20 60,-40 40,-30 90,-60 140,-60 40,0 40,0 60,-40 20,-40 70,-80 120,-90 80,-10 80,-10 90,-40 40,-80 100,-130 180,-130 40,0 50,-10 100,-60 50,-50 70,-60 120,-70 30,-20 70,-20 100,-20 40,10 40,10 100,-40 40,-40 90,-70 120,-90 40,-20 60,-20 110,-20 60,10 60,10 70,-20 10,-20 40,-50 70,-80 30,-30 50,-50 40,-50 -20,-20 -150,-60 -190,-60 -80,-10 -130,-40 -280,-150 -80,-50 -170,-110 -190,-130 l -50,-30 -180,10 c -160,0 -180,0 -200,-10 -20,-10 -50,-20 -70,-20 -20,0 -40,0 -40,-10 -10,-10 -30,-20 -60,-20 -70,-10 -80,-30 -40,-40 50,-10 50,-30 -10,-40 -20,0 -60,-10 -70,-20 l -30,-10 30,-20 c 20,-10 30,-20 30,-30 0,-10 -50,-50 -110,-90 -10,-10 -30,-30 -30,-40 0,-10 40,-30 90,-30 h 40 v -50 -40 h 50 c 30,0 60,-10 70,-10 0,-10 30,0 50,10 40,10 100,10 360,10 h 310 l -10,-30 c 0,-20 0,-50 0,-70 0,-50 30,-120 50,-150 30,-20 20,-50 0,-60 -20,-10 -40,-40 -40,-70 -20,-40 -20,-40 0,-60 10,-10 10,-30 10,-40 -10,-30 10,-60 50,-60 20,-10 30,-20 40,-40 20,-40 50,-60 90,-50 20,10 30,0 50,-60 10,-20 20,-50 40,-60 30,-30 40,-30 90,-30 l 50,10 30,-60 c 20,-60 50,-70 140,-70 40,0 90,0 120,-10 20,0 60,-10 90,-10 30,0 50,0 60,-10 10,-10 30,-20 50,-20 20,0 30,0 40,-30 0,-40 40,-80 80,-90 10,0 30,-10 40,-20 l 20,-20 40,20 c 20,20 60,50 90,80 30,20 60,40 70,40 20,0 60,-20 110,-40 90,-50 90,-50 140,0 l 30,30 30,-20 c 10,-10 50,-40 70,-60 l 40,-30 20,30 c 30,50 80,170 80,200 10,20 0,30 -30,20 h -40 l 10,150 v 150 l 50,30 c 20,20 50,60 60,80 20,50 40,190 40,300 0,50 0,100 0,110 10,0 50,10 100,10 60,0 110,10 150,20 60,20 70,20 100,10 80,-40 150,-60 210,-70 80,0 230,-70 270,-110 30,-40 50,-40 120,-50 50,-10 90,-20 130,-40 40,-30 70,-30 140,-40 70,0 100,-10 160,-40 60,-30 80,-30 140,-30 60,-10 90,-10 130,-30 70,-30 130,-40 200,-40 50,10 60,10 140,-30 90,-50 180,-80 240,-80 20,0 30,10 30,10 0,20 30,10 140,-30 0,-30 100,-60 100,-60 100,-10 100,-10 100,0 l 100,20 100,-60 c 300,-180 600,-210 800,-80 100,40 200,140 300,170 0,60 -100,50 -200,-10 -100,-40 -100,-40 -200,-50 -100,0 -200,0 -300,0 h -200 l -100,30 c -100,40 -300,160 -400,230 -200,90 -260,160 -470,360 -250,220 -330,290 -470,390 -60,50 -120,90 -120,90 -20,50 540,70 680,30 60,-30 280,-30 380,-20 0,10 100,30 200,50 0,40 100,40 200,50 100,10 100,20 100,20 0,10 0,30 0,60 0,70 0,90 -100,130 -100,30 -200,80 -200,130 -100,100 -400,130 -500,60 -150,-60 -200,-70 -330,-80 -200,-10 -580,30 -750,70 -30,0 -100,30 -150,60 -110,50 -230,80 -390,110 -160,30 -420,40 -540,20 -310,-40 -740,-110 -870,-150 l -60,-20 -80,80 c -40,40 -120,130 -180,200 -60,70 -130,150 -160,190 -40,40 -120,150 -190,240 -70,100 -160,230 -210,280 -160,190 -230,270 -240,300 -20,40 -200,190 -390,320 -80,60 -160,120 -170,130 -40,30 -20,40 80,50 190,20 410,10 560,-40 150,-40 510,-50 650,-20 30,10 100,30 160,40 50,20 140,30 190,40 60,0 100,10 100,10 0,10 -10,30 -20,50 -10,50 -50,70 -120,90 -80,20 -160,60 -240,140 -110,100 -240,140 -440,140 -110,10 -120,0 -170,-30 -40,-20 -80,-30 -120,-40 -30,0 -220,0 -420,10 -410,10 -540,30 -760,80 -240,70 -490,100 -650,80 z" />
 </g>
</svg>
